<svg xmlns="http://www.w3.org/2000/svg" xmlns:xlink="http://www.w3.org/1999/xlink" xmlns:lucid="lucid" width="1351.5" height="1374.81"><g transform="translate(331 -646.1875)" lucid:page-tab-id="0_0"><path d="M-500 500h2000v2000H-500z" fill="#fff"/><path d="M-20 706a6 6 0 0 1 6-6h808a6 6 0 0 1 6 6v1308a6 6 0 0 1-6 6H-14a6 6 0 0 1-6-6z" stroke="#000" stroke-width="2" fill-opacity="0"/><path d="M-20 652.2a6 6 0 0 1 6-6h191.16a6 6 0 0 1 6 6V682a6 6 0 0 1-6 6H-14a6 6 0 0 1-6-6z"/><use xlink:href="#a" transform="matrix(1,0,0,1,-12,654.1875) translate(0 20.760416666666668)"/><use xlink:href="#b" transform="matrix(1,0,0,1,-12,654.1875) translate(45.57291666666667 20.760416666666668)"/><use xlink:href="#c" transform="matrix(1,0,0,1,-12,654.1875) translate(102.83333333333334 20.760416666666668)"/><path d="M-300 1100h120v120h-120z" fill-opacity="0"/><path d="M-240 1100c39.96 0 60 20.04 60 60s-20.04 60-60 60-60-20.04-60-60 20.04-60 60-60z" stroke="#000" stroke-opacity="0"/><path d="M-239.94 1137.48c5.18 0 9.38 4.2 9.38 9.38 0 5.18-4.2 9.38-9.38 9.38-5.18 0-9.38-4.2-9.38-9.38 0-5.18 4.2-9.38 9.38-9.38m0-3.76c-7.25 0-13.14 5.9-13.14 13.14 0 7.25 5.9 13.14 13.14 13.14 7.25 0 13.14-5.9 13.14-13.14 0-3.5-1.4-6.83-3.84-9.3-2.47-2.45-5.8-3.84-9.3-3.84zM-221.16 1186.28h-3.76v-9.4c0-2.5-.97-4.88-2.74-6.64-1.76-1.76-4.17-2.75-6.65-2.75h-11.27c-5.2 0-9.4 4.18-9.4 9.37v9.4h-3.75v-9.4c0-7.26 5.9-13.15 13.15-13.15h11.26c7.24 0 13.14 5.9 13.14 13.15v9.4z" stroke="#000" stroke-opacity="0" fill="#fff"/><path d="M-270 1130h60v60h-60v-60z" stroke="#000" stroke-opacity="0" fill-opacity="0"/><use xlink:href="#d" transform="matrix(1,0,0,1,-330,1229) translate(0 20.666666666666668)"/><use xlink:href="#e" transform="matrix(1,0,0,1,-330,1229) translate(54.01041666666667 20.666666666666668)"/><path d="M900 1020h120v120H900z" fill-opacity="0"/><path d="M960 1020c39.96 0 60 20.04 60 60s-20.04 60-60 60-60-20.04-60-60 20.04-60 60-60z" stroke="#000" stroke-opacity="0"/><path d="M960.06 1057.48c5.18 0 9.38 4.2 9.38 9.38 0 5.18-4.2 9.38-9.38 9.38-5.18 0-9.38-4.2-9.38-9.38 0-5.18 4.2-9.38 9.38-9.38m0-3.76c-7.25 0-13.14 5.9-13.14 13.14 0 7.25 5.9 13.14 13.14 13.14 7.25 0 13.14-5.9 13.14-13.14 0-3.5-1.4-6.83-3.84-9.3-2.47-2.45-5.8-3.84-9.3-3.84zM978.84 1106.28h-3.76v-9.4c0-2.5-.97-4.88-2.74-6.64-1.76-1.76-4.17-2.75-6.65-2.75h-11.27c-5.2 0-9.4 4.18-9.4 9.37v9.4h-3.75v-9.4c0-7.26 5.9-13.15 13.15-13.15h11.26c7.24 0 13.14 5.9 13.14 13.15v9.4z" stroke="#000" stroke-opacity="0" fill="#fff"/><path d="M930 1050h60v60h-60v-60z" stroke="#000" stroke-opacity="0" fill-opacity="0"/><use xlink:href="#f" transform="matrix(1,0,0,1,870,1149) translate(56.291666666666664 20.666666666666668)"/><path d="M40 766a6 6 0 0 1 6-6h148a6 6 0 0 1 6 6v108a6 6 0 0 1-6 6H46a6 6 0 0 1-6-6z" stroke="#000" stroke-width="2" fill="#fff"/><use xlink:href="#g" transform="matrix(1,0,0,1,52,772) translate(30.401041666666664 41.66666666666667)"/><use xlink:href="#h" transform="matrix(1,0,0,1,52,772) translate(36.744791666666664 72.64166666666667)"/><path d="M-178.9 1102.3L40.4 895.16" stroke="#e81313" stroke-width="3" fill="none"/><path d="M-177.87 1103.35l-2.13 2v-4.05l.1-.1z" stroke="#e81313" stroke-width=".05" fill="#e81313"/><path d="M51.88 884.33l-7.2 13.17-6.35-6.74z" stroke="#e81313" stroke-width="3" fill="#e81313"/><path d="M40 926a6 6 0 0 1 6-6h148a6 6 0 0 1 6 6v108a6 6 0 0 1-6 6H46a6 6 0 0 1-6-6z" stroke="#000" stroke-width="3" fill="#fff"/><use xlink:href="#i" transform="matrix(1,0,0,1,52,932) translate(3.5208333333333144 41.66666666666667)"/><use xlink:href="#h" transform="matrix(1,0,0,1,52,932) translate(36.744791666666664 72.64166666666667)"/><path d="M-178.85 1159.04l201.5-167.36" stroke="#e81313" stroke-width="3" fill="none"/><path d="M-177.87 1160.15l-2.13 1.77v-3.84l.24-.2z" stroke="#e81313" stroke-width=".05" fill="#e81313"/><path d="M34.77 981.6l-8.02 12.68-5.92-7.13z" stroke="#e81313" stroke-width="3" fill="#e81313"/><path d="M40 1086a6 6 0 0 1 6-6h148a6 6 0 0 1 6 6v108a6 6 0 0 1-6 6H46a6 6 0 0 1-6-6z" stroke="#000" stroke-width="3" fill="#fff"/><use xlink:href="#j" transform="matrix(1,0,0,1,52,1092) translate(14.677083333333329 41.66666666666667)"/><use xlink:href="#k" transform="matrix(1,0,0,1,52,1092) translate(70.07291666666666 41.66666666666667)"/><use xlink:href="#l" transform="matrix(1,0,0,1,52,1092) translate(33.75520833333333 72.64166666666667)"/><path d="M-178.5 1159.9l196.43-13.92" stroke="#e81313" stroke-width="3" fill="none"/><path d="M-178.36 1161.36l-1.64.12v-2.96l1.43-.1z" stroke="#e81313" stroke-width=".05" fill="#e81313"/><path d="M33.66 1144.87l-13.9 5.63-.66-9.24z" stroke="#e81313" stroke-width="3" fill="#e81313"/><path d="M40 1246a6 6 0 0 1 6-6h148a6 6 0 0 1 6 6v108a6 6 0 0 1-6 6H46a6 6 0 0 1-6-6z" stroke="#000" stroke-width="3" fill="#fff"/><use xlink:href="#m" transform="matrix(1,0,0,1,52,1252) translate(10.343749999999993 56.66666666666667)"/><use xlink:href="#n" transform="matrix(1,0,0,1,52,1252) translate(57.1875 56.66666666666667)"/><use xlink:href="#o" transform="matrix(1,0,0,1,52,1252) translate(82.75 56.66666666666667)"/><path d="M-238.56 1220.4l257.24 73.9" stroke="#e81313" stroke-width="3" fill="none"/><path d="M-238.93 1221.84l-4.36-1.25.18-.6h4.72z" stroke="#e81313" stroke-width=".05" fill="#e81313"/><path d="M33.84 1298.66l-15 .52 2.56-8.9z" stroke="#e81313" stroke-width="3" fill="#e81313"/><path d="M40 1406a6 6 0 0 1 6-6h148a6 6 0 0 1 6 6v108a6 6 0 0 1-6 6H46a6 6 0 0 1-6-6z" stroke="#000" stroke-width="3" fill="#fff"/><use xlink:href="#p" transform="matrix(1,0,0,1,52,1412) translate(1.0104166666666572 41.66666666666667)"/><use xlink:href="#q" transform="matrix(1,0,0,1,52,1412) translate(87.9375 41.66666666666667)"/><use xlink:href="#o" transform="matrix(1,0,0,1,52,1412) translate(46.546875 72.64166666666667)"/><path d="M-238.86 1220.98l261.74 225.56" stroke="#e81313" stroke-width="3" fill="none"/><path d="M-239.8 1222.12l-2.46-2.12h4.3z" stroke="#e81313" stroke-width=".05" fill="#e81313"/><path d="M34.82 1456.83l-13.83-5.8 6.04-7.02z" stroke="#e81313" stroke-width="3" fill="#e81313"/><path d="M40 1566a6 6 0 0 1 6-6h148a6 6 0 0 1 6 6v108a6 6 0 0 1-6 6H46a6 6 0 0 1-6-6z" stroke="#000" stroke-width="3" fill="#fff"/><use xlink:href="#j" transform="matrix(1,0,0,1,52,1572) translate(18.84895833333333 56.66666666666667)"/><use xlink:href="#o" transform="matrix(1,0,0,1,52,1572) translate(74.24479166666666 56.66666666666667)"/><path d="M-239.14 1221.23l265.86 381.85" stroke="#e81313" stroke-width="3" fill="none"/><path d="M-237.9 1220.42l-2.43 1.68-1.47-2.1h3.6z" stroke="#e81313" stroke-width=".05" fill="#e81313"/><path d="M35.73 1616.02l-11.96-9.06 7.6-5.3z" stroke="#e81313" stroke-width="3" fill="#e81313"/><path d="M40 1726a6 6 0 0 1 6-6h148a6 6 0 0 1 6 6v108a6 6 0 0 1-6 6H46a6 6 0 0 1-6-6z" stroke="#000" stroke-width="3" fill="#fff"/><use xlink:href="#r" transform="matrix(1,0,0,1,52,1732) translate(19.781249999999993 56.66666666666667)"/><path d="M-239.33 1221.34l268.65 540.2" stroke="#e81313" stroke-width="3" fill="none"/><path d="M-238 1220.72l-2.64 1.3-1-2.02h3.3z" stroke="#e81313" stroke-width=".05" fill="#e81313"/><path d="M36.34 1775.65l-10.5-10.7 8.3-4.13z" stroke="#e81313" stroke-width="3" fill="#e81313"/><path d="M40 1886a6 6 0 0 1 6-6h148a6 6 0 0 1 6 6v108a6 6 0 0 1-6 6H46a6 6 0 0 1-6-6z" stroke="#000" stroke-width="3" fill="#fff"/><use xlink:href="#r" transform="matrix(1,0,0,1,52,1892) translate(19.781249999999993 56.66666666666667)"/><path d="M-239.46 1221.4l270.52 699.37" stroke="#e81313" stroke-width="3" fill="none"/><path d="M-238.07 1220.9l-2.75 1.07-.76-1.97h3.16z" stroke="#e81313" stroke-width=".05" fill="#e81313"/><path d="M36.75 1935.47l-9.47-11.63 8.64-3.35z" stroke="#e81313" stroke-width="3" fill="#e81313"/><path d="M500 846a6 6 0 0 1 6-6h148a6 6 0 0 1 6 6v108a6 6 0 0 1-6 6H506a6 6 0 0 1-6-6z" stroke="#000" stroke-width="2" fill="#fff"/><use xlink:href="#s" transform="matrix(1,0,0,1,512,852) translate(40.14583333333333 56.66666666666667)"/><path d="M898.8 1079.1L677.47 912.4" stroke="#635dff" stroke-width="3" fill="none"/><path d="M900 1078.15v3.7l-2.12-1.6 1.78-2.35z" stroke="#635dff" stroke-width=".05" fill="#635dff"/><path d="M664.88 902.92l14.18 4.88-5.58 7.4z" stroke="#635dff" stroke-width="3" fill="#635dff"/><path d="M500 1026a6 6 0 0 1 6-6h148a6 6 0 0 1 6 6v108a6 6 0 0 1-6 6H506a6 6 0 0 1-6-6z" stroke="#000" stroke-width="2" fill="#fff"/><use xlink:href="#m" transform="matrix(1,0,0,1,512,1032) translate(18.953124999999993 56.66666666666667)"/><use xlink:href="#t" transform="matrix(1,0,0,1,512,1032) translate(65.796875 56.66666666666667)"/><path d="M898.5 1081l-216.88-.9" stroke="#635dff" stroke-width="3" fill="none"/><path d="M900 1079.53v2.94h-1.54v-2.95z" stroke="#635dff" stroke-width=".05" fill="#635dff"/><path d="M665.85 1080.02l14.3-4.58-.05 9.27z" stroke="#635dff" stroke-width="3" fill="#635dff"/><path d="M500 1206a6 6 0 0 1 6-6h148a6 6 0 0 1 6 6v108a6 6 0 0 1-6 6H506a6 6 0 0 1-6-6z" stroke="#000" stroke-width="2" fill="#fff"/><use xlink:href="#u" transform="matrix(1,0,0,1,512,1212) translate(20.359374999999993 56.66666666666667)"/><use xlink:href="#t" transform="matrix(1,0,0,1,512,1212) translate(64.390625 56.66666666666667)"/><path d="M898.8 1080.9l-221.33 166.7" stroke="#635dff" stroke-width="3" fill="none"/><path d="M900 1081.85l-.34.25-1.78-2.35 2.12-1.6z" stroke="#635dff" stroke-width=".05" fill="#635dff"/><path d="M664.88 1257.08l8.6-12.28 5.58 7.4z" stroke="#635dff" stroke-width="3" fill="#635dff"/><path d="M500 1386a6 6 0 0 1 6-6h148a6 6 0 0 1 6 6v108a6 6 0 0 1-6 6H506a6 6 0 0 1-6-6z" stroke="#000" stroke-width="2" fill="#fff"/><g><use xlink:href="#v" transform="matrix(1,0,0,1,512,1392) translate(7.052083333333329 56.66666666666667)"/><use xlink:href="#t" transform="matrix(1,0,0,1,512,1392) translate(77.69791666666666 56.66666666666667)"/></g><path d="M899.17 1081.25L672.4 1422.82" stroke="#635dff" stroke-width="3" fill="none"/><path d="M900 1081.85l-2.08-1.38 2.08-3.14z" stroke="#635dff" stroke-width=".05" fill="#635dff"/><path d="M663.68 1435.96l4.03-14.45 7.74 5.13z" stroke="#635dff" stroke-width="3" fill="#635dff"/><path d="M500 1566a6 6 0 0 1 6-6h148a6 6 0 0 1 6 6v108a6 6 0 0 1-6 6H506a6 6 0 0 1-6-6z" stroke="#000" stroke-width="2" fill="#fff"/><g><use xlink:href="#j" transform="matrix(1,0,0,1,512,1572) translate(14.677083333333329 41.66666666666667)"/><use xlink:href="#k" transform="matrix(1,0,0,1,512,1572) translate(70.07291666666666 41.66666666666667)"/><use xlink:href="#w" transform="matrix(1,0,0,1,512,1572) translate(50.265625 72.64166666666667)"/></g><path d="M899.4 1081.37l-230.05 519.77" stroke="#635dff" stroke-width="3" fill="none"/><path d="M900 1076.72v4.96l-1.97-.87 1.84-4.14z" stroke="#635dff" stroke-width=".05" fill="#635dff"/><path d="M662.97 1615.56l1.53-14.92 8.48 3.75z" stroke="#635dff" stroke-width="3" fill="#635dff"/><defs><path fill="#fff" d="M763 24c-353 0-583-224-583-531v-983h190v968c0 214 149 370 393 370 243 0 391-156 391-370v-968h190v983c0 307-230 531-581 531" id="x"/><path fill="#fff" d="M538 24C308 24 148-78 108-271l171-41c32 123 123 178 257 178 156 0 256-77 256-169 0-77-54-128-164-154l-186-44c-203-48-300-148-300-305 0-192 176-326 414-326 230 0 351 112 402 269l-163 42c-31-80-94-158-238-158-133 0-233 69-233 162 0 83 57 129 188 160l169 40c203 48 298 149 298 302 0 196-179 339-441 339" id="y"/><path fill="#fff" d="M628 24c-324 0-524-230-524-574 0-343 198-582 503-582 237 0 487 146 487 559v75H286c9 234 145 362 343 362 132 0 231-58 273-172l174 48C1024-91 857 24 628 24zM287-650h624c-17-190-120-322-304-322-192 0-309 151-320 322" id="z"/><g id="a"><use transform="matrix(0.010416666666666668,0,0,0.010416666666666668,0,0)" xlink:href="#x"/><use transform="matrix(0.010416666666666668,0,0,0.010416666666666668,15.875000000000002,0)" xlink:href="#y"/><use transform="matrix(0.010416666666666668,0,0,0.010416666666666668,27.13541666666667,0)" xlink:href="#z"/></g><path fill="#fff" d="M783 20c-382 0-661-292-661-764 0-473 279-766 661-766 302 0 548 182 601 489h-190c-42-204-217-313-411-313-268 0-476 208-476 590 0 381 209 588 476 588 195 0 369-110 411-313h190c-52 303-296 489-601 489" id="A"/><path fill="#fff" d="M471 26C259 26 90-98 90-318c0-256 228-303 435-329 202-27 287-16 287-108 0-139-79-219-234-219-161 0-248 86-283 164l-173-57c86-203 278-265 451-265 150 0 419 46 419 395V0H815v-152h-12C765-73 660 26 471 26zm31-159c199 0 310-134 310-271v-155c-30 35-226 55-295 64-131 17-246 59-246 186 0 116 97 176 231 176" id="B"/><g id="b"><use transform="matrix(0.010416666666666668,0,0,0.010416666666666668,0,0)" xlink:href="#A"/><use transform="matrix(0.010416666666666668,0,0,0.010416666666666668,15.583333333333336,0)" xlink:href="#B"/><use transform="matrix(0.010416666666666668,0,0,0.010416666666666668,27.562500000000004,0)" xlink:href="#y"/><use transform="matrix(0.010416666666666668,0,0,0.010416666666666668,38.82291666666667,0)" xlink:href="#z"/></g><path fill="#fff" d="M645 0H180v-1490h484c435 0 692 280 692 742 0 466-257 748-711 748zM370-168h263c363 0 539-218 539-580 0-358-176-574-521-574H370v1154" id="C"/><path fill="#fff" d="M158 0v-1118h180V0H158zm91-1301c-68 0-125-53-125-119s57-119 125-119c69 0 126 53 126 119s-57 119-126 119" id="D"/><path fill="#fff" d="M611 442c-248 0-391-105-460-228l146-94c47 65 117 165 314 165 178 0 307-82 307-266v-224h-17C863-141 792-18 576-18c-268 0-472-195-472-546 0-346 197-568 476-568 216 0 288 133 326 193h17v-179h175V29c0 289-215 413-487 413zm-5-620c203 0 314-146 314-390 0-237-108-403-314-403-213 0-319 180-319 403 0 230 109 390 319 390" id="E"/><path fill="#fff" d="M158 0v-1118h174v172h12c41-113 157-188 290-188 26 0 70 2 91 3v181c-11-2-60-10-108-10-161 0-279 109-279 260V0H158" id="F"/><path fill="#fff" d="M158 0v-1118h175l1 205c55-151 181-225 313-225 147 0 245 90 285 228 53-141 190-228 352-228 194 0 352 125 352 384V0h-181v-749c0-161-105-225-225-225-151 0-243 103-243 244V0H807v-767c0-124-93-207-219-207-131 0-250 92-250 270V0H158" id="G"/><g id="c"><use transform="matrix(0.010416666666666668,0,0,0.010416666666666668,0,0)" xlink:href="#C"/><use transform="matrix(0.010416666666666668,0,0,0.010416666666666668,15.395833333333336,0)" xlink:href="#D"/><use transform="matrix(0.010416666666666668,0,0,0.010416666666666668,20.562500000000004,0)" xlink:href="#B"/><use transform="matrix(0.010416666666666668,0,0,0.010416666666666668,32.54166666666667,0)" xlink:href="#E"/><use transform="matrix(0.010416666666666668,0,0,0.010416666666666668,45.62500000000001,0)" xlink:href="#F"/><use transform="matrix(0.010416666666666668,0,0,0.010416666666666668,53.65625000000001,0)" xlink:href="#B"/><use transform="matrix(0.010416666666666668,0,0,0.010416666666666668,65.63541666666667,0)" xlink:href="#G"/></g><path d="M750 21c-371 0-615-218-615-544v-967h305v942c0 174 123 299 310 299s309-125 309-299v-942h306v967c0 326-247 544-615 544" id="H"/><path d="M572 22C302 22 117-98 78-306l279-48c29 105 101 156 224 156 114 0 185-48 185-115 0-118-228-130-337-155-215-49-322-150-322-317 0-215 187-347 470-347 265 0 424 116 466 298l-266 47c-24-76-87-130-196-130-98 0-174 46-174 113 0 56 38 95 144 117l201 40c216 44 320 143 320 302 0 220-207 367-500 367" id="I"/><path d="M633 22C291 22 81-200 81-553c0-345 210-579 537-579 292 0 525 185 525 567v84H378c7 183 109 277 260 277 105 0 184-46 216-132l272 51C1071-99 893 22 633 22zM380-669h474c-15-146-94-237-233-237-143 0-229 99-241 237" id="J"/><path d="M128 0v-1118h290v195h12c54-169 184-238 367-200v268c-27-8-86-15-130-15-138 0-239 95-239 234V0H128" id="K"/><g id="d"><use transform="matrix(0.010416666666666668,0,0,0.010416666666666668,0,0)" xlink:href="#H"/><use transform="matrix(0.010416666666666668,0,0,0.010416666666666668,15.614583333333336,0)" xlink:href="#I"/><use transform="matrix(0.010416666666666668,0,0,0.010416666666666668,27.562500000000004,0)" xlink:href="#J"/><use transform="matrix(0.010416666666666668,0,0,0.010416666666666668,40.270833333333336,0)" xlink:href="#K"/></g><path d="M169-607c0-330 107-732 258-974h279c-145 311-231 674-231 974 0 262 67 512 231 886H427C258-1 169-307 169-607" id="L"/><path d="M786 20C389 20 94-260 94-744c0-487 299-766 692-766 339 0 597 194 641 529h-309c-28-162-156-258-326-258-233 0-388 179-388 495 0 323 157 493 387 493 170 0 298-97 328-259h309c-34 277-266 530-642 530" id="M"/><path d="M513 14c-232 0-385-159-385-421v-711h300v659c0 139 76 222 202 222 127 0 217-86 217-234v-647h301V0H864l-4-232C797-74 683 14 513 14" id="N"/><path d="M683-1118v229H474v562c0 71 29 104 102 104 23 0 73-7 95-13l43 225C647 9 580 16 520 16 296 16 174-96 174-301v-588H20v-229h154v-266h300v266h209" id="O"/><path d="M628 22C291 22 81-210 81-554c0-346 210-578 547-578 336 0 547 232 547 578 0 344-211 576-547 576zm0-236c160 0 242-146 242-341 0-197-82-341-242-341S387-753 387-555c0 195 81 341 241 341" id="P"/><path d="M128 0v-1118h278l12 217c60-163 185-234 319-234 143 0 236 81 288 251 63-172 205-251 359-251 205 0 357 138 357 381V0h-301v-697c0-126-76-187-177-187-114 0-184 79-184 196V0H789v-705c0-109-72-179-174-179-106 0-187 74-187 208V0H128" id="Q"/><path d="M67 279c166-379 230-627 230-886 0-300-86-663-230-974h278c151 241 258 644 258 974 0 302-90 608-258 886H67" id="R"/><g id="e"><use transform="matrix(0.010416666666666668,0,0,0.010416666666666668,0,0)" xlink:href="#L"/><use transform="matrix(0.010416666666666668,0,0,0.010416666666666668,8.041666666666668,0)" xlink:href="#M"/><use transform="matrix(0.010416666666666668,0,0,0.010416666666666668,23.822916666666668,0)" xlink:href="#N"/><use transform="matrix(0.010416666666666668,0,0,0.010416666666666668,37.10416666666667,0)" xlink:href="#I"/><use transform="matrix(0.010416666666666668,0,0,0.010416666666666668,49.052083333333336,0)" xlink:href="#O"/><use transform="matrix(0.010416666666666668,0,0,0.010416666666666668,56.65625000000001,0)" xlink:href="#P"/><use transform="matrix(0.010416666666666668,0,0,0.010416666666666668,69.73958333333334,0)" xlink:href="#Q"/><use transform="matrix(0.010416666666666668,0,0,0.010416666666666668,89.20833333333334,0)" xlink:href="#J"/><use transform="matrix(0.010416666666666668,0,0,0.010416666666666668,101.91666666666667,0)" xlink:href="#K"/><use transform="matrix(0.010416666666666668,0,0,0.010416666666666668,110.60416666666669,0)" xlink:href="#R"/></g><path d="M49 0l509-1490h400L1480 0h-339l-115-346H497L386 0H49zm524-585h374c-75-213-124-402-192-666-66 268-110 453-182 666" id="S"/><path d="M537 19C279 19 81-185 81-557c0-382 206-575 454-575 190 0 278 113 318 202h10v-560h300V0H868v-179h-15C812-89 719 19 537 19zm92-241c153 0 240-134 240-336 0-203-86-334-240-334-158 0-240 138-240 334 0 197 84 336 240 336" id="T"/><path d="M128 0v-1118h300V0H128zm150-1264c-91 0-165-68-165-154 0-85 74-154 165-154 90 0 165 69 165 154 0 86-75 154-165 154" id="U"/><path d="M428-647V0H128v-1118h283l4 231c63-156 176-245 348-245 232 0 384 159 384 421V0H847v-659c0-139-76-222-202-222-128 0-217 86-217 234" id="V"/><g id="f"><use transform="matrix(0.010416666666666668,0,0,0.010416666666666668,0,0)" xlink:href="#S"/><use transform="matrix(0.010416666666666668,0,0,0.010416666666666668,15.437500000000002,0)" xlink:href="#T"/><use transform="matrix(0.010416666666666668,0,0,0.010416666666666668,28.88541666666667,0)" xlink:href="#Q"/><use transform="matrix(0.010416666666666668,0,0,0.010416666666666668,48.35416666666667,0)" xlink:href="#U"/><use transform="matrix(0.010416666666666668,0,0,0.010416666666666668,54.13541666666667,0)" xlink:href="#V"/></g><path d="M180 0v-1490h528c311 0 458 177 458 395 0 191-114 278-244 313v14c139 9 302 137 302 371 0 225-148 397-499 397H180zm190-168h350c232 0 321-102 321-231 0-149-120-277-311-277H370v508zm0-668h328c160 0 286-101 286-255 0-129-87-231-280-231H370v486" id="W"/><path d="M158 0v-1118h174v172h12c41-113 157-188 290-188 26 0 70 2 91 3v181c-11-2-60-10-108-10-161 0-279 109-279 260V0H158" id="X"/><path d="M613 24c-304 0-509-231-509-576 0-350 205-580 509-580 305 0 511 230 511 580 0 345-206 576-511 576zm0-161c226 0 329-195 329-415 0-222-103-419-329-419-223 0-326 196-326 419 0 220 103 415 326 415" id="Y"/><path d="M409 0L70-1118h191c89 329 165 560 243 925 75-353 154-601 240-925h192c85 325 161 564 235 922 77-354 157-598 244-922h191L1267 0h-179c-86-307-176-590-250-913C763-588 675-308 588 0H409" id="Z"/><path d="M538 24C308 24 148-78 108-271l171-41c32 123 123 178 257 178 156 0 256-77 256-169 0-77-54-128-164-154l-186-44c-203-48-300-148-300-305 0-192 176-326 414-326 230 0 351 112 402 269l-163 42c-31-80-94-158-238-158-133 0-233 69-233 162 0 83 57 129 188 160l169 40c203 48 298 149 298 302 0 196-179 339-441 339" id="aa"/><path d="M628 24c-324 0-524-230-524-574 0-343 198-582 503-582 237 0 487 146 487 559v75H286c9 234 145 362 343 362 132 0 231-58 273-172l174 48C1024-91 857 24 628 24zM287-650h624c-17-190-120-322-304-322-192 0-309 151-320 322" id="ab"/><g id="g"><use transform="matrix(0.010416666666666668,0,0,0.010416666666666668,0,0)" xlink:href="#W"/><use transform="matrix(0.010416666666666668,0,0,0.010416666666666668,13.958333333333336,0)" xlink:href="#X"/><use transform="matrix(0.010416666666666668,0,0,0.010416666666666668,21.635416666666668,0)" xlink:href="#Y"/><use transform="matrix(0.010416666666666668,0,0,0.010416666666666668,34.04166666666667,0)" xlink:href="#Z"/><use transform="matrix(0.010416666666666668,0,0,0.010416666666666668,51.50000000000001,0)" xlink:href="#aa"/><use transform="matrix(0.010416666666666668,0,0,0.010416666666666668,62.76041666666667,0)" xlink:href="#ab"/></g><path d="M158 0v-1490h180v865h22l478-493h223L593-638 1096 0H865L456-523 338-412V0H158" id="ac"/><g id="h"><use transform="matrix(0.010416666666666668,0,0,0.010416666666666668,0,0)" xlink:href="#W"/><use transform="matrix(0.010416666666666668,0,0,0.010416666666666668,13.958333333333336,0)" xlink:href="#Y"/><use transform="matrix(0.010416666666666668,0,0,0.010416666666666668,26.750000000000004,0)" xlink:href="#Y"/><use transform="matrix(0.010416666666666668,0,0,0.010416666666666668,39.54166666666667,0)" xlink:href="#ac"/><use transform="matrix(0.010416666666666668,0,0,0.010416666666666668,51.25000000000001,0)" xlink:href="#aa"/></g><path d="M657 26c-323 0-524-166-541-416h195c15 169 171 246 346 246 202 0 356-106 356-265 5-203-294-238-475-293-239-73-380-191-380-389 0-252 224-419 512-419 294 0 499 171 508 396H992c-17-145-151-228-328-228-193 0-321 102-321 242 0 156 175 211 284 241l149 41c160 44 422 134 422 412 0 244-197 432-541 432" id="ad"/><path d="M471 26C259 26 90-98 90-318c0-256 228-303 435-329 202-27 287-16 287-108 0-139-79-219-234-219-161 0-248 86-283 164l-173-57c86-203 278-265 451-265 150 0 419 46 419 395V0H815v-152h-12C765-73 660 26 471 26zm31-159c199 0 310-134 310-271v-155c-30 35-226 55-295 64-131 17-246 59-246 186 0 116 97 176 231 176" id="ae"/><path d="M613 24c-304 0-509-231-509-576 0-350 205-580 509-580 216 0 392 114 453 309l-173 49c-33-115-133-197-280-197-223 0-326 196-326 419 0 220 103 415 326 415 150 0 252-85 285-206l172 49C1010-95 832 24 613 24" id="af"/><path d="M338-670V0H158v-1490h180v566c73-149 190-208 336-208 226 0 379 139 379 422V0H872v-695c0-172-96-275-252-275-161 0-282 109-282 300" id="ag"/><path d="M692-1560L212 224H46l480-1784h166" id="ah"/><path d="M180 0v-1490h901v168H370v510h643v168H370V0H180" id="ai"/><path d="M158 0v-1118h180V0H158zm91-1301c-68 0-125-53-125-119s57-119 125-119c69 0 126 53 126 119s-57 119-126 119" id="aj"/><path d="M338-1490V0H158v-1490h180" id="ak"/><path d="M598-1118v154H368v674c0 100 37 144 132 144 23 0 62-6 92-12L629-6c-37 13-88 20-134 20-193 0-307-107-307-290v-688H20v-154h168v-266h180v266h230" id="al"/><g id="i"><use transform="matrix(0.010416666666666668,0,0,0.010416666666666668,0,0)" xlink:href="#ad"/><use transform="matrix(0.010416666666666668,0,0,0.010416666666666668,13.687500000000002,0)" xlink:href="#ab"/><use transform="matrix(0.010416666666666668,0,0,0.010416666666666668,26.333333333333336,0)" xlink:href="#ae"/><use transform="matrix(0.010416666666666668,0,0,0.010416666666666668,38.3125,0)" xlink:href="#X"/><use transform="matrix(0.010416666666666668,0,0,0.010416666666666668,45.989583333333336,0)" xlink:href="#af"/><use transform="matrix(0.010416666666666668,0,0,0.010416666666666668,58.17708333333334,0)" xlink:href="#ag"/><use transform="matrix(0.010416666666666668,0,0,0.010416666666666668,70.79166666666667,0)" xlink:href="#ah"/><use transform="matrix(0.010416666666666668,0,0,0.010416666666666668,78.47916666666667,0)" xlink:href="#ai"/><use transform="matrix(0.010416666666666668,0,0,0.010416666666666668,91.07291666666667,0)" xlink:href="#aj"/><use transform="matrix(0.010416666666666668,0,0,0.010416666666666668,96.23958333333334,0)" xlink:href="#ak"/><use transform="matrix(0.010416666666666668,0,0,0.010416666666666668,101.71875000000001,0)" xlink:href="#al"/><use transform="matrix(0.010416666666666668,0,0,0.010416666666666668,108.48958333333337,0)" xlink:href="#ab"/><use transform="matrix(0.010416666666666668,0,0,0.010416666666666668,120.92708333333337,0)" xlink:href="#X"/></g><path d="M600 0L52-1490h200c166 485 304 806 458 1336 156-533 285-846 449-1336h202L819 0H600" id="am"/><g id="j"><use transform="matrix(0.010416666666666668,0,0,0.010416666666666668,0,0)" xlink:href="#am"/><use transform="matrix(0.010416666666666668,0,0,0.010416666666666668,14.718750000000002,0)" xlink:href="#aj"/><use transform="matrix(0.010416666666666668,0,0,0.010416666666666668,19.885416666666668,0)" xlink:href="#ab"/><use transform="matrix(0.010416666666666668,0,0,0.010416666666666668,31.9375,0)" xlink:href="#Z"/></g><g id="k"><use transform="matrix(0.010416666666666668,0,0,0.010416666666666668,0,0)" xlink:href="#W"/><use transform="matrix(0.010416666666666668,0,0,0.010416666666666668,13.958333333333336,0)" xlink:href="#Y"/><use transform="matrix(0.010416666666666668,0,0,0.010416666666666668,26.750000000000004,0)" xlink:href="#Y"/><use transform="matrix(0.010416666666666668,0,0,0.010416666666666668,39.54166666666667,0)" xlink:href="#ac"/></g><path d="M645 0H180v-1490h484c435 0 692 280 692 742 0 466-257 748-711 748zM370-168h263c363 0 539-218 539-580 0-358-176-574-521-574H370v1154" id="an"/><g id="l"><use transform="matrix(0.010416666666666668,0,0,0.010416666666666668,0,0)" xlink:href="#an"/><use transform="matrix(0.010416666666666668,0,0,0.010416666666666668,15.395833333333336,0)" xlink:href="#ab"/><use transform="matrix(0.010416666666666668,0,0,0.010416666666666668,27.833333333333336,0)" xlink:href="#al"/><use transform="matrix(0.010416666666666668,0,0,0.010416666666666668,34.91666666666667,0)" xlink:href="#ae"/><use transform="matrix(0.010416666666666668,0,0,0.010416666666666668,46.895833333333336,0)" xlink:href="#aj"/><use transform="matrix(0.010416666666666668,0,0,0.010416666666666668,52.06250000000001,0)" xlink:href="#ak"/><use transform="matrix(0.010416666666666668,0,0,0.010416666666666668,57.22916666666667,0)" xlink:href="#aa"/></g><path d="M52 0l541-1490h220L1361 0h-200l-149-416H398L254 0H52zm404-582h497c-103-290-145-390-251-756-108 377-145 460-246 756" id="ao"/><path d="M577 24c-279 0-473-224-473-580 0-354 195-576 474-576 218 0 287 134 324 193h14v-551h180V0H922v-173h-20C865-111 790 24 577 24zm27-161c203 0 314-172 314-421 0-247-108-413-314-413-212 0-317 181-317 413 0 235 108 421 317 421" id="ap"/><g id="m"><use transform="matrix(0.010416666666666668,0,0,0.010416666666666668,0,0)" xlink:href="#ao"/><use transform="matrix(0.010416666666666668,0,0,0.010416666666666668,14.718750000000002,0)" xlink:href="#ap"/><use transform="matrix(0.010416666666666668,0,0,0.010416666666666668,27.781250000000004,0)" xlink:href="#ap"/></g><g id="n"><use transform="matrix(0.010416666666666668,0,0,0.010416666666666668,0,0)" xlink:href="#al"/><use transform="matrix(0.010416666666666668,0,0,0.010416666666666668,6.770833333333336,0)" xlink:href="#Y"/></g><path d="M783 20c-382 0-661-292-661-764 0-473 279-766 661-766 302 0 548 182 601 489h-190c-42-204-217-313-411-313-268 0-476 208-476 590 0 381 209 588 476 588 195 0 369-110 411-313h190c-52 303-296 489-601 489" id="aq"/><g id="o"><use transform="matrix(0.010416666666666668,0,0,0.010416666666666668,0,0)" xlink:href="#aq"/><use transform="matrix(0.010416666666666668,0,0,0.010416666666666668,15.583333333333336,0)" xlink:href="#ae"/><use transform="matrix(0.010416666666666668,0,0,0.010416666666666668,27.562500000000004,0)" xlink:href="#X"/><use transform="matrix(0.010416666666666668,0,0,0.010416666666666668,35.927083333333336,0)" xlink:href="#al"/></g><path d="M180 0v-1490h510c348 0 508 194 508 460 0 198-88 351-276 417L1256 0h-220L726-579c-117 2-238 0-356 1V0H180zm190-747h312c235 0 327-108 327-283 0-177-92-293-329-293H370v576" id="ar"/><path d="M158 0v-1118h175l1 205c55-151 181-225 313-225 147 0 245 90 285 228 53-141 190-228 352-228 194 0 352 125 352 384V0h-181v-749c0-161-105-225-225-225-151 0-243 103-243 244V0H807v-767c0-124-93-207-219-207-131 0-250 92-250 270V0H158" id="as"/><path d="M481 0L54-1118h197c107 314 236 620 325 951 87-331 217-637 324-951h197L670 0H481" id="at"/><g id="p"><use transform="matrix(0.010416666666666668,0,0,0.010416666666666668,0,0)" xlink:href="#ar"/><use transform="matrix(0.010416666666666668,0,0,0.010416666666666668,13.416666666666668,0)" xlink:href="#ab"/><use transform="matrix(0.010416666666666668,0,0,0.010416666666666668,25.854166666666668,0)" xlink:href="#as"/><use transform="matrix(0.010416666666666668,0,0,0.010416666666666668,44.54166666666667,0)" xlink:href="#Y"/><use transform="matrix(0.010416666666666668,0,0,0.010416666666666668,56.91666666666667,0)" xlink:href="#at"/><use transform="matrix(0.010416666666666668,0,0,0.010416666666666668,68.48958333333334,0)" xlink:href="#ab"/></g><path d="M678-1118v154H420V0H240v-964H20v-154h220v-149c0-194 155-293 318-293 85 0 141 18 168 30l-50 154c-19-6-47-17-97-17-111 0-159 58-159 166v109h258" id="au"/><g id="q"><use transform="matrix(0.010416666666666668,0,0,0.010416666666666668,0,0)" xlink:href="#au"/><use transform="matrix(0.010416666666666668,0,0,0.010416666666666668,7.895833333333334,0)" xlink:href="#X"/><use transform="matrix(0.010416666666666668,0,0,0.010416666666666668,15.572916666666668,0)" xlink:href="#Y"/><use transform="matrix(0.010416666666666668,0,0,0.010416666666666668,28.364583333333336,0)" xlink:href="#as"/></g><path d="M537 14c-226 0-379-139-379-422v-710h180v695c0 172 97 275 253 275 160 0 281-109 281-300v-670h181V0H879v-209C806-46 684 14 537 14" id="av"/><g id="r"><use transform="matrix(0.010416666666666668,0,0,0.010416666666666668,0,0)" xlink:href="#aq"/><use transform="matrix(0.010416666666666668,0,0,0.010416666666666668,15.583333333333336,0)" xlink:href="#ag"/><use transform="matrix(0.010416666666666668,0,0,0.010416666666666668,28.19791666666667,0)" xlink:href="#ab"/><use transform="matrix(0.010416666666666668,0,0,0.010416666666666668,40.63541666666667,0)" xlink:href="#af"/><use transform="matrix(0.010416666666666668,0,0,0.010416666666666668,52.82291666666667,0)" xlink:href="#ac"/><use transform="matrix(0.010416666666666668,0,0,0.010416666666666668,64.05208333333334,0)" xlink:href="#Y"/><use transform="matrix(0.010416666666666668,0,0,0.010416666666666668,76.84375000000001,0)" xlink:href="#av"/><use transform="matrix(0.010416666666666668,0,0,0.010416666666666668,89.45833333333334,0)" xlink:href="#al"/></g><path d="M180 0v-1490h190v1322h690V0H180" id="aw"/><path d="M611 442c-248 0-391-105-460-228l146-94c47 65 117 165 314 165 178 0 307-82 307-266v-224h-17C863-141 792-18 576-18c-268 0-472-195-472-546 0-346 197-568 476-568 216 0 288 133 326 193h17v-179h175V29c0 289-215 413-487 413zm-5-620c203 0 314-146 314-390 0-237-108-403-314-403-213 0-319 180-319 403 0 230 109 390 319 390" id="ax"/><path d="M338-670V0H158v-1118h173l1 207c72-158 192-221 342-221 226 0 378 139 378 422V0H872v-695c0-172-96-275-252-275-161 0-282 109-282 300" id="ay"/><g id="s"><use transform="matrix(0.010416666666666668,0,0,0.010416666666666668,0,0)" xlink:href="#aw"/><use transform="matrix(0.010416666666666668,0,0,0.010416666666666668,12.062500000000002,0)" xlink:href="#Y"/><use transform="matrix(0.010416666666666668,0,0,0.010416666666666668,24.854166666666668,0)" xlink:href="#ax"/><use transform="matrix(0.010416666666666668,0,0,0.010416666666666668,37.93750000000001,0)" xlink:href="#aj"/><use transform="matrix(0.010416666666666668,0,0,0.010416666666666668,43.10416666666667,0)" xlink:href="#ay"/></g><g id="t"><use transform="matrix(0.010416666666666668,0,0,0.010416666666666668,0,0)" xlink:href="#W"/><use transform="matrix(0.010416666666666668,0,0,0.010416666666666668,13.958333333333336,0)" xlink:href="#Y"/><use transform="matrix(0.010416666666666668,0,0,0.010416666666666668,26.750000000000004,0)" xlink:href="#Y"/><use transform="matrix(0.010416666666666668,0,0,0.010416666666666668,39.54166666666667,0)" xlink:href="#ac"/></g><path d="M180 0v-1490h908v168H370v486h669v168H370v500h727V0H180" id="az"/><g id="u"><use transform="matrix(0.010416666666666668,0,0,0.010416666666666668,0,0)" xlink:href="#az"/><use transform="matrix(0.010416666666666668,0,0,0.010416666666666668,12.822916666666668,0)" xlink:href="#ap"/><use transform="matrix(0.010416666666666668,0,0,0.010416666666666668,25.885416666666668,0)" xlink:href="#aj"/><use transform="matrix(0.010416666666666668,0,0,0.010416666666666668,31.052083333333343,0)" xlink:href="#al"/></g><g id="v"><use transform="matrix(0.010416666666666668,0,0,0.010416666666666668,0,0)" xlink:href="#an"/><use transform="matrix(0.010416666666666668,0,0,0.010416666666666668,15.395833333333336,0)" xlink:href="#ab"/><use transform="matrix(0.010416666666666668,0,0,0.010416666666666668,27.833333333333336,0)" xlink:href="#ak"/><use transform="matrix(0.010416666666666668,0,0,0.010416666666666668,33,0)" xlink:href="#ab"/><use transform="matrix(0.010416666666666668,0,0,0.010416666666666668,45.43749999999999,0)" xlink:href="#al"/><use transform="matrix(0.010416666666666668,0,0,0.010416666666666668,52.20833333333333,0)" xlink:href="#ab"/></g><g id="w"><use transform="matrix(0.010416666666666668,0,0,0.010416666666666668,0,0)" xlink:href="#aw"/><use transform="matrix(0.010416666666666668,0,0,0.010416666666666668,12.062500000000002,0)" xlink:href="#aj"/><use transform="matrix(0.010416666666666668,0,0,0.010416666666666668,17.229166666666668,0)" xlink:href="#aa"/><use transform="matrix(0.010416666666666668,0,0,0.010416666666666668,28.489583333333336,0)" xlink:href="#al"/></g></defs></g></svg>